<svg width="15" height="15" viewBox="0 0 15 15" fill="none" xmlns="http://www.w3.org/2000/svg">
<g clip-path="url(#clip0)">
<path d="M6.21132 8.78848C4.77959 7.35676 4.45632 5.92503 4.38339 5.35141C4.36301 5.1928 4.41759 5.03374 4.53106 4.92107L5.68968 3.76296C5.86011 3.59263 5.89036 3.32718 5.76261 3.12288L3.91787 0.258395C3.77654 0.0321659 3.48634 -0.0494823 3.24778 0.0698602L0.286317 1.4646C0.0934009 1.5596 -0.0200696 1.76456 0.00183387 1.97848C0.157006 3.45262 0.799679 7.07641 4.36089 10.6379C7.92209 14.1993 11.5454 14.8418 13.0203 14.9969C13.2342 15.0188 13.4392 14.9054 13.5342 14.7124L14.9289 11.751C15.0478 11.5129 14.9667 11.2235 14.7414 11.0819L11.8769 9.23771C11.6727 9.10982 11.4073 9.13985 11.2368 9.31012L10.0787 10.4687C9.96605 10.5822 9.80699 10.6368 9.64839 10.6164C9.07477 10.5435 7.64304 10.2202 6.21132 8.78848Z" fill="white"/>
<path d="M11.8965 8.01746C11.6109 8.01746 11.3793 7.78588 11.3793 7.50022C11.3769 5.35874 9.64148 3.62333 7.5 3.62091C7.21433 3.62091 6.98276 3.38933 6.98276 3.10367C6.98276 2.818 7.21433 2.58643 7.5 2.58643C10.2126 2.58942 12.4108 4.78765 12.4138 7.50022C12.4138 7.78588 12.1822 8.01746 11.8965 8.01746Z" fill="white"/>
<path d="M14.4828 8.01724C14.1971 8.01724 13.9655 7.78567 13.9655 7.5C13.9615 3.93085 11.0692 1.03847 7.5 1.03448C7.21433 1.03448 6.98276 0.802906 6.98276 0.517241C6.98276 0.231577 7.21433 0 7.5 0C11.6403 0.004561 14.9955 3.35976 15 7.5C15 7.63718 14.9455 7.76874 14.8485 7.86575C14.7515 7.96275 14.62 8.01724 14.4828 8.01724Z" fill="white"/>
</g>
<defs>
<clipPath id="clip0">
<rect width="15" height="15" fill="white"/>
</clipPath>
</defs>
</svg>
