<svg width="10" height="6" viewBox="0 0 10 6" fill="none" xmlns="http://www.w3.org/2000/svg">
<path d="M0.89925 0.97846C0.896584 0.857241 0.931724 0.738203 0.999838 0.637896C1.06795 0.537589 1.16567 0.460996 1.27933 0.418767C1.39299 0.376538 1.51696 0.37077 1.63405 0.402266C1.75113 0.433762 1.85545 0.500957 1.93258 0.594508L4.99052 4.16401L8.04738 0.594508C8.09494 0.529794 8.15532 0.475597 8.2248 0.435313C8.29428 0.395028 8.37135 0.369523 8.45114 0.360394C8.53093 0.351265 8.61173 0.35871 8.68852 0.382261C8.7653 0.405813 8.83641 0.444964 8.89736 0.497263C8.95831 0.549563 9.00775 0.613883 9.04269 0.686197C9.07763 0.75851 9.09726 0.83726 9.10035 0.917512C9.10345 0.997765 9.08999 1.07779 9.06073 1.15258C9.03146 1.22737 8.98707 1.29532 8.93033 1.35216L5.43371 5.43891C5.37894 5.50309 5.31096 5.55462 5.23435 5.58996C5.15774 5.6253 5.07435 5.64359 4.98998 5.64359C4.90561 5.64359 4.82222 5.6253 4.74561 5.58996C4.66899 5.55462 4.60095 5.50309 4.54618 5.43891L1.0462 1.35216C0.954497 1.24892 0.902364 1.1165 0.899116 0.97846L0.89925 0.97846Z" fill="#ffffff"/>
</svg>
