<svg width="36" height="36" viewBox="0 0 36 36" fill="none" xmlns="http://www.w3.org/2000/svg">
<rect width="36" height="36" fill="#EF600F"/>
<path d="M26.5907 26.5517L25.1897 14.0212C25.1663 13.8194 24.9795 13.6625 24.7694 13.6625H22.1775V12.9004C22.1775 10.7484 20.3562 9 18.1147 9C15.8731 9 14.0518 10.7484 14.0518 12.9004V13.6625H11.3899C11.1797 13.6625 10.9929 13.8194 10.9696 14.0212L9.56857 26.5517C9.54522 26.6638 9.59192 26.7758 9.66197 26.8655C9.73202 26.9552 9.84877 27 9.96552 27H26.1937C26.3105 27 26.4272 26.9552 26.4973 26.8655C26.5673 26.7758 26.614 26.6638 26.5907 26.5517ZM21.7572 15.9265C21.9674 15.9265 22.1308 16.0834 22.1308 16.2852C22.1308 16.4869 21.9674 16.6438 21.7572 16.6438C21.5471 16.6438 21.3836 16.4869 21.3836 16.2852C21.3836 16.0834 21.5471 15.9265 21.7572 15.9265ZM14.8924 12.9004C14.8924 11.1968 16.3401 9.80697 18.1147 9.80697C19.8892 9.80697 21.3369 11.1968 21.3369 12.9004V13.6625H14.8924V12.9004ZM14.4721 15.9265C14.6822 15.9265 14.8457 16.0834 14.8457 16.2852C14.8457 16.4869 14.6822 16.6438 14.4721 16.6438C14.2619 16.6438 14.0985 16.4869 14.0985 16.2852C14.0985 16.0834 14.2619 15.9265 14.4721 15.9265ZM10.4559 26.1706L11.7635 14.4471H14.0518V15.1868C13.5848 15.3437 13.2579 15.7696 13.2579 16.2628C13.2579 16.8904 13.7949 17.406 14.4487 17.406C15.1025 17.406 15.6396 16.8904 15.6396 16.2628C15.6396 15.7696 15.3127 15.3437 14.8457 15.1868V14.4471H21.2902V15.1868C20.8232 15.3437 20.4963 15.7696 20.4963 16.2628C20.4963 16.8904 21.0334 17.406 21.6872 17.406C22.341 17.406 22.878 16.8904 22.878 16.2628C22.878 15.7696 22.5511 15.3437 22.0841 15.1868V14.4471H24.4658L25.7734 26.1706H10.4559Z" fill="white"/>
</svg>
