<svg width="90" height="90" viewBox="0 0 90 90" fill="none" xmlns="http://www.w3.org/2000/svg">
<path d="M45 90C69.8528 90 90 69.8528 90 45C90 20.1472 69.8528 0 45 0C20.1472 0 0 20.1472 0 45C0 69.8528 20.1472 90 45 90Z" fill="#7A925E"/>
<path d="M33.502 65.2996L56.6408 88.4384C75.8048 83.328 90.0004 65.8674 90.0004 44.9999C90.0004 44.574 90.0004 44.1482 90.0004 43.7223L71.83 26.9715L33.502 65.2996Z" fill="#697E50"/>
<path d="M46.1365 55.0788C48.1239 57.0661 48.1239 60.4731 46.1365 62.4605L42.0198 66.5772C40.0324 68.5646 36.6255 68.5646 34.6381 66.5772L16.6097 48.4068C14.6223 46.4194 14.6223 43.0125 16.6097 41.0251L20.7264 36.9084C22.7138 34.921 26.1207 34.921 28.1081 36.9084L46.1365 55.0788Z" fill="white"/>
<path d="M61.8927 23.7063C63.8801 21.719 67.287 21.719 69.2744 23.7063L73.3911 27.8231C75.3785 29.8104 75.3785 33.2174 73.3911 35.2048L42.1608 66.2931C40.1735 68.2805 36.7665 68.2805 34.7791 66.2931L30.6624 62.1764C28.675 60.189 28.675 56.7821 30.6624 54.7947L61.8927 23.7063Z" fill="white"/>
</svg>
