<svg width="20" height="20" viewBox="0 0 20 20" fill="none" xmlns="http://www.w3.org/2000/svg">
<path d="M19.9166 11.2739L18.9702 11.1547C19.0179 10.7737 19.0417 10.3869 19.0417 9.99996C19.0417 9.61893 19.0179 9.23214 18.9702 8.85111L19.9166 8.73218C19.9702 9.14879 19.9941 9.57743 19.9941 9.99996C20 10.4286 19.9702 10.8571 19.9166 11.2739Z" fill="#303030"/>
<path d="M18.0535 15.9227L17.2857 15.3571C17.738 14.7381 18.1131 14.0714 18.3988 13.363L19.2857 13.7202C18.9702 14.5 18.5596 15.244 18.0535 15.9227V15.9227Z" fill="#303030"/>
<path d="M14.1607 19.0953L13.7619 18.2321C14.4584 17.9107 15.1132 17.506 15.7084 17.0238L16.3095 17.762C15.6489 18.2977 14.9285 18.7441 14.1607 19.0953V19.0953Z" fill="#303030"/>
<path d="M6.72031 14.4285L6.04753 13.75L9.52374 10.2797V3.80945H10.4762V10.6726L6.72031 14.4285Z" fill="#303030"/>
<path d="M20 6.66657H15.238V5.71425H19.0477V1.90479H20V6.66657Z" fill="#303030"/>
<path d="M10 20C4.48818 20 0 15.5118 0 10C0 4.48818 4.48818 0 10 0C12.7262 0 15.2738 1.07736 17.1727 3.03571L19.869 5.86304L19.1786 6.51786L16.488 3.69646C14.7738 1.92854 12.4643 0.952323 10 0.952323C5.01186 0.952323 0.952323 5.01186 0.952323 10C0.952323 14.9881 5.01186 19.0477 10 19.0477C10.5298 19.0477 11.0655 19.0001 11.5833 18.9108L11.75 19.8512C11.1785 19.9465 10.5893 20 10 20V20Z" fill="#303030"/>
</svg>
