<svg width="16" height="16" viewBox="0 0 16 16" fill="none" xmlns="http://www.w3.org/2000/svg">
<path d="M15.86 15.184L11.9718 11.2958C13.0148 10.0967 13.6463 8.53215 13.6463 6.82217C13.6463 3.05809 10.5847 0 6.82413 0C3.06005 0 0.00195312 3.06164 0.00195312 6.82217C0.00195312 10.5827 3.06359 13.6443 6.82413 13.6443C8.53411 13.6443 10.0986 13.0129 11.2977 11.9698L15.186 15.8581C15.2782 15.9503 15.4024 16 15.523 16C15.6436 16 15.7678 15.9539 15.86 15.8581C16.0445 15.6736 16.0445 15.3685 15.86 15.184ZM0.956277 6.82217C0.956277 3.5867 3.58865 0.957871 6.82058 0.957871C10.0561 0.957871 12.6849 3.59024 12.6849 6.82217C12.6849 10.0541 10.0561 12.69 6.82058 12.69C3.58865 12.69 0.956277 10.0576 0.956277 6.82217Z" fill="#303030"/>
</svg>
