<svg width="30" height="30" viewBox="0 0 30 30" fill="none" xmlns="http://www.w3.org/2000/svg">
<circle cx="15" cy="15" r="15" fill="#303030"/>
<g clip-path="url(#clip0)">
<path d="M21.73 13.25H20.4542V14.5199H19.1843V15.7957H20.4542V17.0656H21.73V15.7957H22.9999V14.5199H21.73V13.25Z" fill="white"/>
<path d="M13.375 19.375C15.8997 19.375 17.5767 17.6028 17.5767 15.1015C17.5767 14.8151 17.547 14.594 17.5056 14.3735H13.3756V15.8773H15.8588C15.7573 16.5161 15.1069 17.7632 13.3756 17.7632C11.884 17.7632 10.666 16.5277 10.666 15C10.666 13.4722 11.8834 12.2362 13.3756 12.2362C14.229 12.2362 14.796 12.6002 15.1186 12.9105L16.3062 11.7707C15.5415 11.0549 14.5568 10.625 13.375 10.625C10.9577 10.625 9 12.5827 9 15C9 17.4173 10.9577 19.375 13.375 19.375Z" fill="white"/>
</g>
<defs>
<clipPath id="clip0">
<rect width="14" height="14" fill="white" transform="translate(9 8)"/>
</clipPath>
</defs>
</svg>
