<svg width="20" height="20" viewBox="0 0 20 20" fill="none" xmlns="http://www.w3.org/2000/svg">
<path d="M14.3291 0.667062C12.6607 0.657011 11.0747 1.48304 9.99998 2.92171C8.93203 1.4732 7.34156 0.644829 5.67085 0.667062C2.53892 0.667062 0 3.52928 0 7.06004C0 13.1106 9.36708 19.0184 9.74684 19.2467C9.90006 19.3621 10.0999 19.3621 10.2532 19.2467C10.6329 19.0184 20 13.1962 20 7.06004C20 3.52928 17.461 0.667062 14.3291 0.667062ZM9.99998 18.1051C8.53162 17.1348 1.01266 11.969 1.01266 7.06004C1.01266 4.1598 3.09821 1.80862 5.6709 1.80862C7.24634 1.78529 8.7207 2.68113 9.56963 4.17744C9.74199 4.44539 10.0745 4.5051 10.3121 4.31073C10.3575 4.27359 10.3975 4.22863 10.4304 4.17744C11.8383 1.75006 14.7252 1.06896 16.8784 2.65617C18.1965 3.62783 18.9899 5.28453 18.9873 7.05998C18.9873 12.026 11.4683 17.1633 9.99998 18.1051Z" fill="#303030"/>
</svg>
