<svg width="30" height="30" viewBox="0 0 30 30" fill="none" xmlns="http://www.w3.org/2000/svg">
<circle cx="15" cy="15" r="15" fill="white"/>
<g clip-path="url(#clip0)">
<path d="M15.0022 11.4055C13.0171 11.4055 11.41 13.0144 11.41 14.9977C11.41 16.9828 13.0189 18.5899 15.0022 18.5899C16.9873 18.5899 18.5944 16.981 18.5944 14.9977C18.5944 13.0126 16.9855 11.4055 15.0022 11.4055ZM15.0022 17.3293C13.7136 17.3293 12.6706 16.2857 12.6706 14.9977C12.6706 13.7097 13.7142 12.6661 15.0022 12.6661C16.2902 12.6661 17.3338 13.7097 17.3338 14.9977C17.3344 16.2857 16.2908 17.3293 15.0022 17.3293Z" fill="#303030"/>
<path d="M17.8863 8.04446C16.5983 7.98438 13.408 7.9873 12.1189 8.04446C10.986 8.09755 9.98678 8.37113 9.1812 9.17671C7.83487 10.523 8.00695 12.3372 8.00695 14.9978C8.00695 17.7208 7.85528 19.493 9.1812 20.8189C10.5328 22.1699 12.3732 21.9931 15.0023 21.9931C17.6996 21.9931 18.6306 21.9949 19.5844 21.6256C20.8811 21.1222 21.8599 19.9631 21.9556 17.8812C22.0163 16.5926 22.0128 13.403 21.9556 12.1138C21.8401 9.65621 20.5212 8.1658 17.8863 8.04446ZM19.925 19.9281C19.0424 20.8107 17.818 20.732 14.9854 20.732C12.0687 20.732 10.8991 20.7751 10.0457 19.9194C9.06278 18.9411 9.2407 17.3702 9.2407 14.9885C9.2407 11.7655 8.90995 9.44446 12.1445 9.2788C12.8877 9.25255 13.1064 9.2438 14.9772 9.2438L15.0034 9.2613C18.112 9.2613 20.5509 8.9358 20.6974 12.1698C20.7306 12.9077 20.7382 13.1294 20.7382 14.9972C20.7376 17.88 20.7924 19.0566 19.925 19.9281Z" fill="#303030"/>
<path d="M18.7366 12.1031C19.2002 12.1031 19.576 11.7273 19.576 11.2637C19.576 10.8001 19.2002 10.4243 18.7366 10.4243C18.273 10.4243 17.8972 10.8001 17.8972 11.2637C17.8972 11.7273 18.273 12.1031 18.7366 12.1031Z" fill="#303030"/>
</g>
<defs>
<clipPath id="clip0">
<rect width="14" height="14" fill="white" transform="translate(8 8)"/>
</clipPath>
</defs>
</svg>
