<svg width="10" height="6" viewBox="0 0 10 6" fill="none" xmlns="http://www.w3.org/2000/svg">
<path d="M9.10093 0.978414C9.1036 0.857195 9.06846 0.738158 9.00035 0.63785C8.93223 0.537543 8.83451 0.46095 8.72085 0.418721C8.6072 0.376492 8.48322 0.370725 8.36614 0.402221C8.24905 0.433717 8.14474 0.500911 8.0676 0.594462L5.00967 4.16396L1.9528 0.594462C1.90524 0.529748 1.84486 0.475551 1.77538 0.435267C1.7059 0.394982 1.62883 0.369477 1.54904 0.360348C1.46925 0.351219 1.38845 0.358664 1.31167 0.382215C1.23489 0.405767 1.16377 0.444918 1.10282 0.497217C1.04187 0.549516 0.99243 0.613837 0.95749 0.686151C0.922549 0.758464 0.902925 0.837214 0.899829 0.917466C0.896732 0.997719 0.910193 1.07775 0.939458 1.15254C0.968722 1.22733 1.01311 1.29527 1.06985 1.35211L4.56647 5.43886C4.62124 5.50304 4.68922 5.55457 4.76583 5.58991C4.84245 5.62525 4.92583 5.64355 5.0102 5.64355C5.09457 5.64355 5.17796 5.62525 5.25458 5.58991C5.33119 5.55457 5.39923 5.50304 5.454 5.43886L8.95399 1.35211C9.04569 1.24887 9.09782 1.11646 9.10107 0.978414L9.10093 0.978414Z" fill="#303030"/>
</svg>
