<svg width="235" height="35" viewBox="0 0 235 35" fill="none" xmlns="http://www.w3.org/2000/svg">
<path d="M17.8555 17.4332H20.1397V26.1288C19.0888 27.0624 17.8448 27.7788 16.4078 28.2782C14.9707 28.7776 13.4587 29.0273 11.8715 29.0273C9.61945 29.0273 7.59261 28.5279 5.79098 27.5292C3.98934 26.5304 2.57377 25.1517 1.54426 23.3931C0.514753 21.6127 0 19.6261 0 17.4332C0 15.2403 0.514753 13.2646 1.54426 11.5059C2.57377 9.72555 3.98934 8.336 5.79098 7.33726C7.59261 6.33852 9.63018 5.83915 11.9037 5.83915C13.6195 5.83915 15.1959 6.12141 16.633 6.68591C18.07 7.2287 19.2818 8.04289 20.2684 9.12848L18.7885 10.6592C17.0083 8.87879 14.7455 7.98861 12.0002 7.98861C10.1771 7.98861 8.5256 8.40114 7.04569 9.22618C5.58722 10.0295 4.43975 11.1585 3.60327 12.6132C2.7668 14.0462 2.34856 15.6529 2.34856 17.4332C2.34856 19.2136 2.7668 20.8202 3.60327 22.2532C4.43975 23.6862 5.58722 24.8152 7.04569 25.6402C8.50416 26.4653 10.1449 26.8778 11.968 26.8778C14.2844 26.8778 16.2469 26.2916 17.8555 25.1192V17.4332Z" fill="white"/>
<path d="M42.256 28.8319L37.1085 21.5042C36.5294 21.5693 35.9288 21.6019 35.3069 21.6019H29.2585V28.8319H26.8778V6.03456H35.3069C38.1809 6.03456 40.4329 6.72933 42.063 8.11888C43.693 9.50844 44.5081 11.4191 44.5081 13.8508C44.5081 15.6311 44.0577 17.1401 43.1568 18.3777C42.2775 19.5935 41.012 20.4729 39.3605 21.0156L44.862 28.8319H42.256ZM35.2425 19.5501C37.4731 19.5501 39.1782 19.0507 40.3579 18.052C41.5375 17.0533 42.1273 15.6529 42.1273 13.8508C42.1273 12.0053 41.5375 10.594 40.3579 9.61699C39.1782 8.61825 37.4731 8.11888 35.2425 8.11888H29.2585V19.5501H35.2425Z" fill="white"/>
<path d="M64.2507 22.7417H51.7036L49.0011 28.8319H46.5239L56.8189 6.03456H59.1675L69.4626 28.8319H66.9531L64.2507 22.7417ZM63.382 20.7877L57.9771 8.54226L52.5722 20.7877H63.382Z" fill="white"/>
<path d="M79.3972 29.0273C77.7242 29.0273 76.1156 28.7559 74.5714 28.2131C73.0486 27.6703 71.8689 26.9538 71.0324 26.0636L71.9654 24.2073C72.7805 25.0323 73.8636 25.7054 75.2148 26.2265C76.566 26.7258 77.9602 26.9755 79.3972 26.9755C81.4133 26.9755 82.9254 26.6064 83.9335 25.8682C84.9415 25.1083 85.4455 24.1313 85.4455 22.9371C85.4455 22.0252 85.1667 21.2979 84.6091 20.7551C84.0729 20.2123 83.408 19.7998 82.6144 19.5175C81.8208 19.2136 80.7162 18.8879 79.3007 18.5405C77.6063 18.1063 76.2551 17.6938 75.247 17.3029C74.2389 16.8904 73.3703 16.2716 72.6411 15.4466C71.9333 14.6215 71.5794 13.5034 71.5794 12.0921C71.5794 10.9414 71.8796 9.89925 72.4802 8.96564C73.0807 8.01033 74.003 7.25042 75.247 6.68591C76.491 6.12141 78.0352 5.83915 79.8798 5.83915C81.1667 5.83915 82.4214 6.0237 83.6439 6.3928C84.8879 6.74019 85.9603 7.2287 86.8611 7.85834L86.0568 9.77983C85.1131 9.15019 84.105 8.68339 83.0326 8.37943C81.9602 8.05375 80.9093 7.89091 79.8798 7.89091C77.9066 7.89091 76.4159 8.28172 75.4079 9.06334C74.4212 9.82325 73.9279 10.8111 73.9279 12.027C73.9279 12.9389 74.196 13.6771 74.7322 14.2416C75.2899 14.7844 75.9762 15.2078 76.7913 15.5117C77.6277 15.794 78.743 16.1088 80.1372 16.4562C81.7887 16.8687 83.1184 17.2812 84.1265 17.6938C85.156 18.0846 86.0246 18.6925 86.7324 19.5175C87.4402 20.3209 87.7941 21.4173 87.7941 22.8069C87.7941 23.9576 87.4831 25.0106 86.8611 25.9659C86.2606 26.8995 85.3276 27.6486 84.0621 28.2131C82.7967 28.7559 81.2417 29.0273 79.3972 29.0273Z" fill="white"/>
<path d="M99.1906 29.0273C97.5176 29.0273 95.909 28.7559 94.3648 28.2131C92.8419 27.6703 91.6623 26.9538 90.8258 26.0636L91.7588 24.2073C92.5738 25.0323 93.657 25.7054 95.0082 26.2265C96.3594 26.7258 97.7535 26.9755 99.1906 26.9755C101.207 26.9755 102.719 26.6064 103.727 25.8682C104.735 25.1083 105.239 24.1313 105.239 22.9371C105.239 22.0252 104.96 21.2979 104.402 20.7551C103.866 20.2123 103.201 19.7998 102.408 19.5175C101.614 19.2136 100.51 18.8879 99.094 18.5405C97.3997 18.1063 96.0484 17.6938 95.0404 17.3029C94.0323 16.8904 93.1637 16.2716 92.4344 15.4466C91.7266 14.6215 91.3727 13.5034 91.3727 12.0921C91.3727 10.9414 91.673 9.89925 92.2736 8.96564C92.8741 8.01033 93.7964 7.25042 95.0404 6.68591C96.2844 6.12141 97.8286 5.83915 99.6731 5.83915C100.96 5.83915 102.215 6.0237 103.437 6.3928C104.681 6.74019 105.754 7.2287 106.654 7.85834L105.85 9.77983C104.906 9.15019 103.898 8.68339 102.826 8.37943C101.754 8.05375 100.703 7.89091 99.6731 7.89091C97.6999 7.89091 96.2093 8.28172 95.2012 9.06334C94.2146 9.82325 93.7213 10.8111 93.7213 12.027C93.7213 12.9389 93.9894 13.6771 94.5256 14.2416C95.0833 14.7844 95.7696 15.2078 96.5846 15.5117C97.4211 15.794 98.5364 16.1088 99.9305 16.4562C101.582 16.8687 102.912 17.2812 103.92 17.6938C104.949 18.0846 105.818 18.6925 106.526 19.5175C107.234 20.3209 107.587 21.4173 107.587 22.8069C107.587 23.9576 107.276 25.0106 106.654 25.9659C106.054 26.8995 105.121 27.6486 103.856 28.2131C102.59 28.7559 101.035 29.0273 99.1906 29.0273Z" fill="white"/>
<path d="M126.448 16.9447H132.078V26.3893C130.791 27.3229 129.311 28.0394 127.638 28.5388C125.965 29.0381 124.292 29.2878 122.619 29.2878C120.26 29.2878 118.137 28.7884 116.249 27.7897C114.362 26.7693 112.882 25.358 111.81 23.5559C110.737 21.7538 110.201 19.7129 110.201 17.4332C110.201 15.1535 110.737 13.1126 111.81 11.3105C112.882 9.50843 114.373 8.10803 116.281 7.10929C118.19 6.08884 120.346 5.57861 122.748 5.57861C124.85 5.57861 126.737 5.93686 128.41 6.65334C130.083 7.36983 131.477 8.40114 132.593 9.74726L128.539 13.46C127.016 11.7665 125.193 10.9197 123.07 10.9197C121.139 10.9197 119.584 11.5168 118.405 12.7109C117.225 13.8833 116.635 15.4574 116.635 17.4332C116.635 18.6925 116.903 19.8215 117.44 20.8202C117.976 21.7973 118.727 22.568 119.692 23.1325C120.657 23.6753 121.761 23.9467 123.005 23.9467C124.228 23.9467 125.375 23.697 126.448 23.1977V16.9447Z" fill="white"/>
<path d="M147.473 29.2878C145.093 29.2878 142.948 28.7776 141.039 27.7571C139.151 26.7367 137.661 25.3254 136.567 23.5233C135.495 21.7213 134.958 19.6912 134.958 17.4332C134.958 15.1752 135.495 13.1451 136.567 11.3431C137.661 9.541 139.151 8.12974 141.039 7.10929C142.948 6.08884 145.093 5.57861 147.473 5.57861C149.854 5.57861 151.988 6.08884 153.876 7.10929C155.784 8.12974 157.275 9.541 158.347 11.3431C159.441 13.1451 159.988 15.1752 159.988 17.4332C159.988 19.6912 159.441 21.7213 158.347 23.5233C157.275 25.3254 155.784 26.7367 153.876 27.7571C151.988 28.7776 149.854 29.2878 147.473 29.2878ZM147.473 23.9467C148.61 23.9467 149.64 23.6753 150.562 23.1325C151.484 22.5897 152.213 21.8298 152.75 20.8528C153.286 19.8541 153.554 18.7142 153.554 17.4332C153.554 16.1522 153.286 15.0232 152.75 14.0462C152.213 13.0474 151.484 12.2767 150.562 11.7339C149.64 11.1911 148.61 10.9197 147.473 10.9197C146.337 10.9197 145.307 11.1911 144.385 11.7339C143.463 12.2767 142.733 13.0474 142.197 14.0462C141.661 15.0232 141.393 16.1522 141.393 17.4332C141.393 18.7142 141.661 19.8541 142.197 20.8528C142.733 21.8298 143.463 22.5897 144.385 23.1325C145.307 23.6753 146.337 23.9467 147.473 23.9467Z" fill="white"/>
<path d="M174.681 29.2878C172.301 29.2878 170.156 28.7776 168.247 27.7571C166.36 26.7367 164.869 25.3254 163.775 23.5233C162.703 21.7213 162.166 19.6912 162.166 17.4332C162.166 15.1752 162.703 13.1451 163.775 11.3431C164.869 9.541 166.36 8.12974 168.247 7.10929C170.156 6.08884 172.301 5.57861 174.681 5.57861C177.062 5.57861 179.196 6.08884 181.084 7.10929C182.992 8.12974 184.483 9.541 185.556 11.3431C186.649 13.1451 187.196 15.1752 187.196 17.4332C187.196 19.6912 186.649 21.7213 185.556 23.5233C184.483 25.3254 182.992 26.7367 181.084 27.7571C179.196 28.7776 177.062 29.2878 174.681 29.2878ZM174.681 23.9467C175.818 23.9467 176.848 23.6753 177.77 23.1325C178.692 22.5897 179.421 21.8298 179.958 20.8528C180.494 19.8541 180.762 18.7142 180.762 17.4332C180.762 16.1522 180.494 15.0232 179.958 14.0462C179.421 13.0474 178.692 12.2767 177.77 11.7339C176.848 11.1911 175.818 10.9197 174.681 10.9197C173.545 10.9197 172.515 11.1911 171.593 11.7339C170.671 12.2767 169.941 13.0474 169.405 14.0462C168.869 15.0232 168.601 16.1522 168.601 17.4332C168.601 18.7142 168.869 19.8541 169.405 20.8528C169.941 21.8298 170.671 22.5897 171.593 23.1325C172.515 23.6753 173.545 23.9467 174.681 23.9467Z" fill="white"/>
<path d="M190.533 6.03456H201.182C203.648 6.03456 205.836 6.50136 207.745 7.43497C209.654 8.36857 211.134 9.69298 212.184 11.4082C213.235 13.1234 213.761 15.1318 213.761 17.4332C213.761 19.7347 213.235 21.743 212.184 23.4582C211.134 25.1734 209.654 26.4979 207.745 27.4315C205.836 28.3651 203.648 28.8319 201.182 28.8319H190.533V6.03456ZM200.924 23.6862C202.855 23.6862 204.399 23.1325 205.557 22.0252C206.737 20.9179 207.326 19.3873 207.326 17.4332C207.326 15.4792 206.737 13.9485 205.557 12.8412C204.399 11.7339 202.855 11.1802 200.924 11.1802H196.903V23.6862H200.924Z" fill="white"/>
<path d="M225.027 29.2878C223.204 29.2878 221.434 29.0598 219.718 28.6039C218.002 28.1479 216.608 27.54 215.536 26.7801L217.627 22.0252C218.635 22.6983 219.804 23.2411 221.134 23.6536C222.464 24.0661 223.772 24.2724 225.059 24.2724C227.504 24.2724 228.726 23.6536 228.726 22.4161C228.726 21.7647 228.373 21.287 227.665 20.9831C226.978 20.6574 225.863 20.3209 224.319 19.9735C222.624 19.6044 221.209 19.2136 220.072 18.8011C218.935 18.3668 217.96 17.6829 217.145 16.7493C216.329 15.8157 215.922 14.5564 215.922 12.9715C215.922 11.5819 216.297 10.3335 217.048 9.22618C217.799 8.09717 218.914 7.20699 220.394 6.55564C221.895 5.90429 223.729 5.57861 225.895 5.57861C227.375 5.57861 228.834 5.75231 230.271 6.0997C231.708 6.42537 232.973 6.91388 234.067 7.56524L232.105 12.3527C229.96 11.1802 227.879 10.594 225.863 10.594C224.598 10.594 223.675 10.7894 223.096 11.1802C222.517 11.5493 222.228 12.0378 222.228 12.6458C222.228 13.2537 222.571 13.7097 223.257 14.0136C223.944 14.3176 225.048 14.6324 226.571 14.9581C228.287 15.3272 229.702 15.7288 230.818 16.1631C231.954 16.5756 232.93 17.2487 233.745 18.1823C234.582 19.0942 235 20.3426 235 21.9275C235 23.2954 234.625 24.5329 233.874 25.6402C233.123 26.7475 231.997 27.6377 230.496 28.3108C228.995 28.9621 227.171 29.2878 225.027 29.2878Z" fill="white"/>
</svg>
