<svg width="15" height="15" viewBox="0 0 15 15" fill="none" xmlns="http://www.w3.org/2000/svg">
<path d="M14.8678 2.98022L10.3186 7.50012L14.8678 12.02C14.95 11.8481 14.9999 11.6581 14.9999 11.4552V3.54504C14.9999 3.3421 14.95 3.15211 14.8678 2.98022Z" fill="white"/>
<path d="M13.6815 2.22656H1.31822C1.11528 2.22656 0.925287 2.27646 0.753403 2.35869L6.56775 8.14374C7.08185 8.65785 7.91787 8.65785 8.43197 8.14374L14.2463 2.35869C14.0744 2.27646 13.8844 2.22656 13.6815 2.22656Z" fill="white"/>
<path d="M0.132129 2.98022C0.0498926 3.15211 0 3.3421 0 3.54504V11.4552C0 11.6581 0.0498926 11.8482 0.132129 12.02L4.68132 7.50012L0.132129 2.98022Z" fill="white"/>
<path d="M9.69712 8.12134L9.05338 8.76508C8.19677 9.62169 6.80291 9.62169 5.9463 8.76508L5.30259 8.12134L0.753403 12.6412C0.925287 12.7235 1.11528 12.7734 1.31822 12.7734H13.6815C13.8844 12.7734 14.0744 12.7235 14.2463 12.6412L9.69712 8.12134Z" fill="white"/>
</svg>
