<svg width="137" height="19" viewBox="0 0 137 19" fill="none" xmlns="http://www.w3.org/2000/svg">
<path d="M10.4094 9.46375H11.741V14.1842C11.1283 14.691 10.4031 15.08 9.56538 15.351C8.72763 15.6221 7.84611 15.7577 6.92083 15.7577C5.60794 15.7577 4.42633 15.4866 3.37602 14.9444C2.3257 14.4022 1.50045 13.6538 0.900271 12.6991C0.30009 11.7326 0 10.6542 0 9.46375C0 8.27333 0.30009 7.20077 0.900271 6.24608C1.50045 5.27959 2.3257 4.52527 3.37602 3.98309C4.42633 3.44092 5.61419 3.16984 6.93959 3.16984C7.93989 3.16984 8.85892 3.32306 9.69667 3.6295C10.5344 3.92416 11.2409 4.36615 11.8161 4.95547L10.9533 5.78641C9.91548 4.81993 8.59634 4.33668 6.99585 4.33668C5.93303 4.33668 4.97024 4.56063 4.10749 5.00851C3.25723 5.4446 2.58828 6.05749 2.10063 6.84718C1.61299 7.62508 1.36916 8.49727 1.36916 9.46375C1.36916 10.4302 1.61299 11.3024 2.10063 12.0803C2.58828 12.8582 3.25723 13.4711 4.10749 13.919C4.95774 14.3669 5.91428 14.5908 6.9771 14.5908C8.32751 14.5908 9.4716 14.2726 10.4094 13.6361V9.46375Z" fill="white"/>
<path d="M24.6344 15.6516L21.6335 11.6737C21.2959 11.7091 20.9458 11.7267 20.5831 11.7267H17.0571V15.6516H15.6692V3.27591H20.5831C22.2586 3.27591 23.5715 3.65308 24.5218 4.4074C25.4721 5.16173 25.9473 6.19893 25.9473 7.519C25.9473 8.48548 25.6847 9.30464 25.1595 9.97646C24.6469 10.6365 23.9091 11.1138 22.9464 11.4085L26.1536 15.6516H24.6344ZM20.5456 10.6129C21.846 10.6129 22.8401 10.3418 23.5278 9.79966C24.2155 9.25749 24.5593 8.49727 24.5593 7.519C24.5593 6.51716 24.2155 5.75105 23.5278 5.22066C22.8401 4.67849 21.846 4.4074 20.5456 4.4074H17.0571V10.6129H20.5456Z" fill="white"/>
<path d="M37.4568 12.3455H30.1421L28.5666 15.6516H27.1224L33.1242 3.27591H34.4934L40.4952 15.6516H39.0322L37.4568 12.3455ZM36.9504 11.2847L33.7994 4.63724L30.6485 11.2847H36.9504Z" fill="white"/>
<path d="M46.2869 15.7577C45.3116 15.7577 44.3738 15.6103 43.4735 15.3157C42.5858 15.021 41.8981 14.6321 41.4104 14.1488L41.9543 13.1411C42.4295 13.589 43.0609 13.9544 43.8486 14.2372C44.6364 14.5083 45.4491 14.6439 46.2869 14.6439C47.4622 14.6439 48.3437 14.4435 48.9314 14.0428C49.5191 13.6302 49.8129 13.0998 49.8129 12.4516C49.8129 11.9566 49.6504 11.5617 49.3253 11.2671C49.0127 10.9724 48.6251 10.7485 48.1624 10.5952C47.6998 10.4302 47.0559 10.2534 46.2306 10.0649C45.2428 9.82913 44.4551 9.60519 43.8674 9.39303C43.2797 9.16909 42.7733 8.83318 42.3482 8.3853C41.9356 7.93742 41.7292 7.33042 41.7292 6.56431C41.7292 5.93963 41.9043 5.37388 42.2544 4.86707C42.6045 4.34847 43.1422 3.93595 43.8674 3.6295C44.5926 3.32306 45.4929 3.16984 46.5682 3.16984C47.3184 3.16984 48.0499 3.27002 48.7626 3.47039C49.4878 3.65897 50.113 3.92416 50.6382 4.26597L50.1693 5.30906C49.6191 4.96726 49.0314 4.71385 48.4063 4.54884C47.7811 4.37204 47.1684 4.28365 46.5682 4.28365C45.4179 4.28365 44.5488 4.4958 43.9612 4.92011C43.386 5.33263 43.0984 5.86891 43.0984 6.52895C43.0984 7.02398 43.2547 7.42471 43.5673 7.73116C43.8924 8.02582 44.2925 8.25565 44.7677 8.42066C45.2553 8.57388 45.9055 8.74478 46.7183 8.93337C47.681 9.15731 48.4563 9.38125 49.044 9.60519C49.6441 9.81734 50.1505 10.1474 50.5632 10.5952C50.9758 11.0313 51.1821 11.6266 51.1821 12.3809C51.1821 13.0056 51.0008 13.5772 50.6382 14.0958C50.2881 14.6026 49.7442 15.0092 49.0064 15.3157C48.2687 15.6103 47.3622 15.7577 46.2869 15.7577Z" fill="white"/>
<path d="M57.826 15.7577C56.8507 15.7577 55.9129 15.6103 55.0126 15.3157C54.1249 15.021 53.4372 14.6321 52.9495 14.1488L53.4934 13.1411C53.9686 13.589 54.6 13.9544 55.3878 14.2372C56.1755 14.5083 56.9882 14.6439 57.826 14.6439C59.0013 14.6439 59.8829 14.4435 60.4705 14.0428C61.0582 13.6302 61.352 13.0998 61.352 12.4516C61.352 11.9566 61.1895 11.5617 60.8644 11.2671C60.5518 10.9724 60.1642 10.7485 59.7016 10.5952C59.2389 10.4302 58.595 10.2534 57.7697 10.0649C56.7819 9.82913 55.9942 9.60519 55.4065 9.39303C54.8188 9.16909 54.3124 8.83318 53.8873 8.3853C53.4747 7.93742 53.2684 7.33042 53.2684 6.56431C53.2684 5.93963 53.4434 5.37388 53.7935 4.86707C54.1436 4.34847 54.6813 3.93595 55.4065 3.6295C56.1317 3.32306 57.032 3.16984 58.1073 3.16984C58.8575 3.16984 59.589 3.27002 60.3017 3.47039C61.0269 3.65897 61.6521 3.92416 62.1773 4.26597L61.7084 5.30906C61.1582 4.96726 60.5706 4.71385 59.9454 4.54884C59.3202 4.37204 58.7075 4.28365 58.1073 4.28365C56.957 4.28365 56.088 4.4958 55.5003 4.92011C54.9251 5.33263 54.6375 5.86891 54.6375 6.52895C54.6375 7.02398 54.7938 7.42471 55.1064 7.73116C55.4315 8.02582 55.8316 8.25565 56.3068 8.42066C56.7944 8.57388 57.4446 8.74478 58.2574 8.93337C59.2202 9.15731 59.9954 9.38125 60.5831 9.60519C61.1832 9.81734 61.6896 10.1474 62.1023 10.5952C62.5149 11.0313 62.7212 11.6266 62.7212 12.3809C62.7212 13.0056 62.5399 13.5772 62.1773 14.0958C61.8272 14.6026 61.2833 15.0092 60.5456 15.3157C59.8078 15.6103 58.9013 15.7577 57.826 15.7577Z" fill="white"/>
<path d="M73.7164 9.19856H76.9986V14.3256C76.2484 14.8324 75.3857 15.2214 74.4104 15.4925C73.4351 15.7636 72.4598 15.8991 71.4845 15.8991C70.1091 15.8991 68.8712 15.628 67.7709 15.0858C66.6705 14.5319 65.8078 13.7658 65.1826 12.7875C64.5574 11.8092 64.2448 10.7013 64.2448 9.46375C64.2448 8.22618 64.5574 7.11827 65.1826 6.14C65.8078 5.16173 66.6768 4.40151 67.7896 3.85934C68.9025 3.30538 70.1591 3.0284 71.5595 3.0284C72.7849 3.0284 73.8852 3.22287 74.8605 3.61182C75.8358 4.00077 76.6485 4.56063 77.2987 5.29138L74.9355 7.30685C74.0478 6.38751 72.9849 5.92784 71.7471 5.92784C70.6217 5.92784 69.7152 6.25197 69.0275 6.90022C68.3398 7.53668 67.9959 8.39119 67.9959 9.46375C67.9959 10.1474 68.1522 10.7603 68.4648 11.3024C68.7774 11.8328 69.2151 12.2512 69.7777 12.5577C70.3404 12.8523 70.9843 12.9997 71.7096 12.9997C72.4223 12.9997 73.0912 12.8641 73.7164 12.593V9.19856Z" fill="white"/>
<path d="M85.9738 15.8991C84.5859 15.8991 83.3355 15.6221 82.2227 15.0682C81.1224 14.5142 80.2533 13.7481 79.6156 12.7698C78.9905 11.7916 78.6779 10.6895 78.6779 9.46375C78.6779 8.23797 78.9905 7.13595 79.6156 6.15768C80.2533 5.17941 81.1224 4.4133 82.2227 3.85934C83.3355 3.30538 84.5859 3.0284 85.9738 3.0284C87.3617 3.0284 88.6059 3.30538 89.7062 3.85934C90.819 4.4133 91.688 5.17941 92.3132 6.15768C92.9509 7.13595 93.2698 8.23797 93.2698 9.46375C93.2698 10.6895 92.9509 11.7916 92.3132 12.7698C91.688 13.7481 90.819 14.5142 89.7062 15.0682C88.6059 15.6221 87.3617 15.8991 85.9738 15.8991ZM85.9738 12.9997C86.6365 12.9997 87.2367 12.8523 87.7743 12.5577C88.312 12.263 88.7371 11.8505 89.0497 11.3201C89.3623 10.7779 89.5186 10.1591 89.5186 9.46375C89.5186 8.76836 89.3623 8.15547 89.0497 7.62508C88.7371 7.08291 88.312 6.66449 87.7743 6.36983C87.2367 6.07517 86.6365 5.92784 85.9738 5.92784C85.3111 5.92784 84.7109 6.07517 84.1733 6.36983C83.6356 6.66449 83.2105 7.08291 82.8979 7.62508C82.5853 8.15547 82.429 8.76836 82.429 9.46375C82.429 10.1591 82.5853 10.7779 82.8979 11.3201C83.2105 11.8505 83.6356 12.263 84.1733 12.5577C84.7109 12.8523 85.3111 12.9997 85.9738 12.9997Z" fill="white"/>
<path d="M101.836 15.8991C100.448 15.8991 99.1972 15.6221 98.0844 15.0682C96.9841 14.5142 96.115 13.7481 95.4773 12.7698C94.8522 11.7916 94.5396 10.6895 94.5396 9.46375C94.5396 8.23797 94.8522 7.13595 95.4773 6.15768C96.115 5.17941 96.9841 4.4133 98.0844 3.85934C99.1972 3.30538 100.448 3.0284 101.836 3.0284C103.223 3.0284 104.468 3.30538 105.568 3.85934C106.681 4.4133 107.55 5.17941 108.175 6.15768C108.813 7.13595 109.131 8.23797 109.131 9.46375C109.131 10.6895 108.813 11.7916 108.175 12.7698C107.55 13.7481 106.681 14.5142 105.568 15.0682C104.468 15.6221 103.223 15.8991 101.836 15.8991ZM101.836 12.9997C102.498 12.9997 103.098 12.8523 103.636 12.5577C104.174 12.263 104.599 11.8505 104.911 11.3201C105.224 10.7779 105.38 10.1591 105.38 9.46375C105.38 8.76836 105.224 8.15547 104.911 7.62508C104.599 7.08291 104.174 6.66449 103.636 6.36983C103.098 6.07517 102.498 5.92784 101.836 5.92784C101.173 5.92784 100.573 6.07517 100.035 6.36983C99.4973 6.66449 99.0722 7.08291 98.7596 7.62508C98.447 8.15547 98.2907 8.76836 98.2907 9.46375C98.2907 10.1591 98.447 10.7779 98.7596 11.3201C99.0722 11.8505 99.4973 12.263 100.035 12.5577C100.573 12.8523 101.173 12.9997 101.836 12.9997Z" fill="white"/>
<path d="M111.076 3.27591H117.285C118.723 3.27591 119.998 3.52932 121.111 4.03613C122.224 4.54295 123.086 5.26191 123.699 6.19304C124.312 7.12416 124.618 8.2144 124.618 9.46375C124.618 10.7131 124.312 11.8033 123.699 12.7345C123.086 13.6656 122.224 14.3846 121.111 14.8914C119.998 15.3982 118.723 15.6516 117.285 15.6516H111.076V3.27591ZM117.135 12.8582C118.26 12.8582 119.16 12.5577 119.835 11.9566C120.523 11.3555 120.867 10.5245 120.867 9.46375C120.867 8.40298 120.523 7.57204 119.835 6.97094C119.16 6.36983 118.26 6.06928 117.135 6.06928H114.79V12.8582H117.135Z" fill="white"/>
<path d="M131.186 15.8991C130.123 15.8991 129.091 15.7753 128.091 15.5278C127.091 15.2803 126.278 14.9503 125.653 14.5378L126.872 11.9566C127.46 12.3219 128.141 12.6166 128.916 12.8405C129.692 13.0645 130.454 13.1765 131.204 13.1765C132.63 13.1765 133.343 12.8405 133.343 12.1687C133.343 11.8151 133.136 11.5558 132.724 11.3908C132.324 11.214 131.673 11.0313 130.773 10.8428C129.785 10.6424 128.96 10.4302 128.297 10.2063C127.635 9.97057 127.066 9.5993 126.591 9.09248C126.115 8.58567 125.878 7.90206 125.878 7.04166C125.878 6.28733 126.097 5.60961 126.534 5.00851C126.972 4.39562 127.622 3.91238 128.485 3.55879C129.36 3.20519 130.429 3.0284 131.692 3.0284C132.555 3.0284 133.405 3.12269 134.243 3.31127C135.081 3.48807 135.818 3.75326 136.456 4.10685L135.312 6.70574C134.062 6.06928 132.849 5.75105 131.673 5.75105C130.936 5.75105 130.398 5.85713 130.06 6.06928C129.723 6.26965 129.554 6.53484 129.554 6.86486C129.554 7.19488 129.754 7.44239 130.154 7.6074C130.554 7.77241 131.198 7.94331 132.086 8.12011C133.086 8.32048 133.912 8.53852 134.562 8.77425C135.224 8.99819 135.793 9.36357 136.269 9.87038C136.756 10.3654 137 11.0431 137 11.9035C137 12.6461 136.781 13.3179 136.344 13.919C135.906 14.5201 135.249 15.0033 134.374 15.3687C133.499 15.7223 132.436 15.8991 131.186 15.8991Z" fill="white"/>
</svg>
