<svg width="6" height="9" viewBox="0 0 6 9" fill="none" xmlns="http://www.w3.org/2000/svg">
<path d="M4.59185 0.427625C4.70729 0.425086 4.82066 0.458552 4.91619 0.523423C5.01172 0.588293 5.08467 0.681362 5.12489 0.789606C5.16511 0.897851 5.1706 1.01592 5.1406 1.12743C5.11061 1.23894 5.04661 1.33829 4.95752 1.41175L1.55799 4.32407L4.95752 7.23537C5.01915 7.28066 5.07076 7.33817 5.10913 7.40434C5.1475 7.47051 5.17179 7.54391 5.18048 7.6199C5.18918 7.6959 5.18209 7.77285 5.15965 7.84597C5.13722 7.9191 5.09994 7.98683 5.05013 8.04488C5.00032 8.10292 4.93906 8.15001 4.87019 8.18329C4.80132 8.21656 4.72632 8.23525 4.64989 8.2382C4.57346 8.24115 4.49724 8.22833 4.42601 8.20046C4.35479 8.17259 4.29008 8.13031 4.23594 8.07627L0.3438 4.74616C0.282678 4.694 0.233597 4.62926 0.199943 4.55629C0.166287 4.48333 0.14886 4.40391 0.14886 4.32356C0.14886 4.2432 0.166287 4.16379 0.199943 4.09082C0.233597 4.01786 0.282678 3.95305 0.3438 3.90089L4.23594 0.567573C4.33427 0.480241 4.46038 0.430591 4.59185 0.427497V0.427625Z" fill="#303030"/>
</svg>
