<svg width="6" height="9" viewBox="0 0 6 9" fill="none" xmlns="http://www.w3.org/2000/svg">
<path d="M1.40815 0.427625C1.29271 0.425086 1.17934 0.458552 1.08381 0.523423C0.988276 0.588293 0.91533 0.681362 0.875112 0.789606C0.834894 0.897851 0.829401 1.01592 0.859397 1.12743C0.889393 1.23894 0.953388 1.33829 1.04248 1.41175L4.44201 4.32407L1.04248 7.23537C0.980852 7.28066 0.929236 7.33817 0.89087 7.40434C0.852504 7.47051 0.828213 7.54391 0.819519 7.6199C0.810825 7.6959 0.817915 7.77285 0.840345 7.84597C0.862775 7.9191 0.900062 7.98683 0.949871 8.04488C0.999679 8.10292 1.06094 8.15001 1.12981 8.18329C1.19868 8.21656 1.27368 8.23525 1.35011 8.2382C1.42654 8.24115 1.50276 8.22833 1.57399 8.20046C1.64521 8.17259 1.70992 8.13031 1.76406 8.07627L5.6562 4.74616C5.71732 4.694 5.7664 4.62926 5.80006 4.55629C5.83371 4.48333 5.85114 4.40391 5.85114 4.32356C5.85114 4.2432 5.83371 4.16379 5.80006 4.09082C5.7664 4.01786 5.71732 3.95305 5.6562 3.90089L1.76406 0.567573C1.66573 0.480241 1.53962 0.430591 1.40815 0.427497V0.427625Z" fill="white"/>
</svg>
