<svg width="16" height="16" viewBox="0 0 16 16" fill="none" xmlns="http://www.w3.org/2000/svg">
<path d="M15.86 15.184L11.9717 11.2958C13.0147 10.0967 13.6462 8.53215 13.6462 6.82217C13.6462 3.05809 10.5846 0 6.82404 0C3.05996 0 0.00186157 3.06164 0.00186157 6.82217C0.00186157 10.5827 3.0635 13.6443 6.82404 13.6443C8.53401 13.6443 10.0985 13.0129 11.2977 11.9698L15.1859 15.8581C15.2781 15.9503 15.4023 16 15.5229 16C15.6435 16 15.7677 15.9539 15.86 15.8581C16.0444 15.6736 16.0444 15.3685 15.86 15.184ZM0.956185 6.82217C0.956185 3.5867 3.58856 0.957871 6.82049 0.957871C10.056 0.957871 12.6848 3.59024 12.6848 6.82217C12.6848 10.0541 10.056 12.69 6.82049 12.69C3.58856 12.69 0.956185 10.0576 0.956185 6.82217Z" fill="#303030"/>
</svg>
