<svg width="18" height="18" viewBox="0 0 18 18" fill="none" xmlns="http://www.w3.org/2000/svg">
<path d="M17.5907 17.5517L16.1897 5.02117C16.1663 4.81943 15.9795 4.66252 15.7694 4.66252H13.1775V3.90037C13.1775 1.74844 11.3562 0 9.11465 0C6.87306 0 5.05176 1.74844 5.05176 3.90037V4.66252H2.38987C2.17972 4.66252 1.99292 4.81943 1.96957 5.02117L0.568574 17.5517C0.545224 17.6638 0.591924 17.7758 0.661974 17.8655C0.732024 17.9552 0.848773 18 0.965523 18H17.1937C17.3105 18 17.4272 17.9552 17.4973 17.8655C17.5673 17.7758 17.614 17.6638 17.5907 17.5517ZM12.7572 6.92653C12.9674 6.92653 13.1308 7.08344 13.1308 7.28518C13.1308 7.48692 12.9674 7.64384 12.7572 7.64384C12.5471 7.64384 12.3836 7.48692 12.3836 7.28518C12.3836 7.08344 12.5471 6.92653 12.7572 6.92653ZM5.89236 3.90037C5.89236 2.19676 7.34005 0.806974 9.11465 0.806974C10.8892 0.806974 12.3369 2.19676 12.3369 3.90037V4.66252H5.89236V3.90037ZM5.47206 6.92653C5.68221 6.92653 5.84566 7.08344 5.84566 7.28518C5.84566 7.48692 5.68221 7.64384 5.47206 7.64384C5.26191 7.64384 5.09846 7.48692 5.09846 7.28518C5.09846 7.08344 5.26191 6.92653 5.47206 6.92653ZM1.45587 17.1706L2.76347 5.44707H5.05176V6.1868C4.58476 6.34371 4.25786 6.76961 4.25786 7.26276C4.25786 7.89041 4.79491 8.40598 5.44871 8.40598C6.10251 8.40598 6.63956 7.89041 6.63956 7.26276C6.63956 6.76961 6.31266 6.34371 5.84566 6.1868V5.44707H12.2902V6.1868C11.8232 6.34371 11.4963 6.76961 11.4963 7.26276C11.4963 7.89041 12.0334 8.40598 12.6872 8.40598C13.341 8.40598 13.878 7.89041 13.878 7.26276C13.878 6.76961 13.5511 6.34371 13.0841 6.1868V5.44707H15.4658L16.7734 17.1706H1.45587Z" fill="#303030"/>
</svg>
