<svg width="18" height="20" viewBox="0 0 18 20" fill="none" xmlns="http://www.w3.org/2000/svg">
<path d="M15.1604 12.4681C14.0248 11.3326 12.631 10.5494 11.1115 10.1728C12.7194 9.38791 13.8297 7.73609 13.8297 5.82974C13.8297 3.16661 11.6631 1 8.99999 1C6.33686 1 4.17028 3.16661 4.17028 5.82974C4.17028 7.73616 5.28063 9.38791 6.88854 10.1728C5.36894 10.5493 3.97517 11.3326 2.83965 12.4681C1.19413 14.1136 0.287903 16.3014 0.287903 18.6285C0.287903 18.8336 0.454227 19 0.659435 19H17.3406C17.5457 19 17.7121 18.8337 17.7121 18.6285C17.7121 16.3014 16.8059 14.1136 15.1604 12.4681ZM4.91331 5.82971C4.91331 3.57629 6.74661 1.74299 9.00002 1.74299C11.2534 1.74299 13.0867 3.57629 13.0867 5.82971C13.0867 8.08312 11.2534 9.91642 9.00002 9.91642C6.74661 9.91642 4.91331 8.08308 4.91331 5.82971ZM1.03951 18.257C1.2341 14.0345 4.73032 10.6594 9.00002 10.6594C13.2697 10.6594 16.7659 14.0345 16.9605 18.257H1.03951Z" fill="#303030" stroke="#303030" stroke-width="0.4"/>
</svg>
