<svg width="20" height="20" viewBox="0 0 20 20" fill="none" xmlns="http://www.w3.org/2000/svg">
<path d="M19.8729 10.389C19.6942 10.6334 15.4371 16.3736 9.9999 16.3736C4.56274 16.3736 0.305391 10.6334 0.126914 10.3892C-0.0423048 10.1574 -0.0423048 9.84287 0.126914 9.611C0.305391 9.36658 4.56274 3.62638 9.9999 3.62638C15.4371 3.62638 19.6942 9.36662 19.8729 9.6108C20.0423 9.84264 20.0423 10.1574 19.8729 10.389ZM9.9999 4.94505C5.99486 4.94505 2.52606 8.75494 1.49922 10.0005C2.52473 11.2471 5.98626 15.055 9.9999 15.055C14.0048 15.055 17.4733 11.2457 18.5006 9.99955C17.4751 8.75299 14.0135 4.94505 9.9999 4.94505Z" fill="#8B8B8B"/>
<path d="M9.99903 13.956C7.8177 13.956 6.04297 12.1813 6.04297 9.99996C6.04297 7.81863 7.8177 6.0439 9.99903 6.0439C12.1804 6.0439 13.9551 7.81863 13.9551 9.99996C13.9551 12.1813 12.1804 13.956 9.99903 13.956ZM9.99903 7.36261C8.54473 7.36261 7.36168 8.5457 7.36168 9.99996C7.36168 11.4542 8.54477 12.6373 9.99903 12.6373C11.4533 12.6373 12.6364 11.4542 12.6364 9.99996C12.6364 8.5457 11.4533 7.36261 9.99903 7.36261Z" fill="#8B8B8B"/>
</svg>
