<svg width="30" height="30" viewBox="0 0 30 30" fill="none" xmlns="http://www.w3.org/2000/svg">
<circle cx="15" cy="15" r="15" fill="white"/>
<g clip-path="url(#clip0)">
<path d="M19.6171 16.5997C19.3907 16.3139 19.4555 16.1867 19.6171 15.9312C19.62 15.9283 21.4884 13.3465 21.6809 12.4709L21.6821 12.4703C21.7777 12.1512 21.6821 11.9167 21.2195 11.9167H19.6888C19.2992 11.9167 19.1195 12.118 19.0232 12.3432C19.0232 12.3432 18.2439 14.2087 17.1414 15.4179C16.7856 15.7673 16.6211 15.8793 16.4268 15.8793C16.3312 15.8793 16.1824 15.7673 16.1824 15.4482V12.4703C16.1824 12.0877 16.0733 11.9167 15.7507 11.9167H13.3439C13.0995 11.9167 12.9542 12.0952 12.9542 12.2615C12.9542 12.6243 13.5055 12.7077 13.5627 13.7286V15.9435C13.5627 16.4288 13.4746 16.5181 13.2792 16.5181C12.7588 16.5181 11.4959 14.645 10.7475 12.5012C10.5964 12.0853 10.4488 11.9173 10.0563 11.9173H8.525C8.08808 11.9173 8 12.1186 8 12.3437C8 12.7416 8.52033 14.7197 10.4197 17.333C11.6855 19.1168 13.4682 20.0834 15.0898 20.0834C16.0646 20.0834 16.1836 19.8687 16.1836 19.4995C16.1836 17.795 16.0955 17.634 16.5837 17.634C16.8101 17.634 17.1997 17.746 18.1097 18.6064C19.1498 19.6267 19.3208 20.0834 19.9029 20.0834H21.4336C21.8699 20.0834 22.091 19.8687 21.9638 19.4452C21.6727 18.5545 19.7058 16.7222 19.6171 16.5997Z" fill="#303030"/>
</g>
<defs>
<clipPath id="clip0">
<rect width="14" height="14" fill="white" transform="translate(8 9)"/>
</clipPath>
</defs>
</svg>
