<svg width="30" height="30" viewBox="0 0 30 30" fill="none" xmlns="http://www.w3.org/2000/svg">
<path d="M21.4936 1.00065C18.9911 0.985577 16.612 2.22462 15 4.38263C13.398 2.20987 11.0123 0.967304 8.50628 1.00065C3.80838 1.00065 0 5.29399 0 10.5901C0 19.666 14.0506 28.5276 14.6203 28.8701C14.8501 29.0433 15.1498 29.0433 15.3797 28.8701C15.9494 28.5276 30 19.7944 30 10.5901C30 5.29399 26.1916 1.00065 21.4936 1.00065ZM15 27.1577C12.7974 25.7022 1.51899 17.9536 1.51899 10.5901C1.51899 6.23976 4.64732 2.71299 8.50635 2.71299C10.8695 2.678 13.0811 4.02176 14.3544 6.26622C14.613 6.66815 15.1117 6.75771 15.4682 6.46616C15.5363 6.41044 15.5962 6.343 15.6456 6.26622C17.7574 2.62515 22.0878 1.6035 25.3176 3.98431C27.2948 5.44181 28.4849 7.92685 28.4809 10.59C28.481 18.0391 17.2025 25.745 15 27.1577Z" fill="white"/>
</svg>
