<svg width="30" height="30" viewBox="0 0 30 30" fill="none" xmlns="http://www.w3.org/2000/svg">
<circle cx="15" cy="15" r="15" fill="#303030"/>
<path d="M16.9395 8H14.9503C12.9351 8 10.9017 9.48811 10.9017 12.8127C10.9017 14.5347 11.6315 15.8759 12.9694 16.6387L10.5206 21.0708C10.4046 21.2804 10.4016 21.518 10.5125 21.7063C10.6209 21.8902 10.819 22 11.0424 22H12.2811C12.5625 22 12.7819 21.864 12.8871 21.6257L15.183 17.135H15.3506V21.4403C15.3506 21.7437 15.6066 22 15.9096 22H16.9918C17.3316 22 17.5689 21.7627 17.5689 21.4229V8.61259C17.5689 8.25191 17.3101 8 16.9395 8ZM15.3506 15.1402H15.0551C13.9089 15.1402 13.2247 14.2046 13.2247 12.6376C13.2247 10.6891 14.0891 9.99487 14.898 9.99487H15.3506V15.1402Z" fill="white"/>
</svg>
