<svg width="30" height="30" viewBox="0 0 30 30" fill="none" xmlns="http://www.w3.org/2000/svg">
<circle cx="15" cy="15" r="15" fill="white"/>
<g clip-path="url(#clip0)">
<path d="M21.69 11.4587L21.7075 11.573C21.5383 10.9728 21.0816 10.5096 20.5012 10.341L20.4889 10.3381C19.3975 10.0418 15.0056 10.0418 15.0056 10.0418C15.0056 10.0418 10.6247 10.0359 9.52224 10.3381C8.93074 10.5096 8.47341 10.9728 8.30716 11.5608L8.30424 11.573C7.89649 13.7028 7.89358 16.2618 8.32233 18.5421L8.30424 18.4266C8.47341 19.0268 8.93016 19.49 9.51058 19.6586L9.52283 19.6615C10.6131 19.9584 15.0062 19.9584 15.0062 19.9584C15.0062 19.9584 19.3864 19.9584 20.4895 19.6615C21.0816 19.49 21.5389 19.0268 21.7052 18.4388L21.7081 18.4266C21.8936 17.4361 21.9997 16.2963 21.9997 15.1319C21.9997 15.0893 21.9997 15.0462 21.9992 15.003C21.9997 14.9633 21.9997 14.9161 21.9997 14.8688C21.9997 13.7039 21.8936 12.5641 21.69 11.4587ZM13.6044 17.1298V12.8756L17.2596 15.0059L13.6044 17.1298Z" fill="#303030"/>
</g>
<defs>
<clipPath id="clip0">
<rect width="14" height="14" fill="white" transform="translate(8 8)"/>
</clipPath>
</defs>
</svg>
